<?xml version="1.0" standalone="no"?>
<!DOCTYPE svg PUBLIC "-//W3C//DTD SVG 20010904//EN"
 "http://www.w3.org/TR/2001/REC-SVG-20010904/DTD/svg10.dtd">
<svg version="1.0" xmlns="http://www.w3.org/2000/svg"
 width="800.000000pt" height="800.000000pt" viewBox="0 0 800.000000 800.000000"
 preserveAspectRatio="xMidYMid meet">

<g transform="translate(0.000000,800.000000) scale(0.100000,-0.100000)"
fill="#000000" stroke="none">
<path d="M955 7847 c291 -153 474 -374 544 -657 27 -106 31 -147 32 -300 1
-149 -12 -227 -81 -500 -81 -320 -77 -395 26 -497 30 -31 53 -58 50 -60 -8 -9
-84 51 -117 93 -81 102 -97 161 -114 447 -8 133 -22 283 -30 332 -58 332 -280
689 -577 926 -130 104 -221 156 -353 201 -122 42 -148 46 -143 22 2 -9 43 -30
108 -55 176 -65 257 -111 352 -196 310 -278 506 -601 563 -928 8 -49 20 -182
25 -295 14 -305 48 -411 165 -518 68 -63 129 -92 203 -99 l57 -5 55 69 c30 38
89 114 130 170 41 56 78 102 83 103 4 0 7 -17 7 -39 0 -114 75 -161 161 -101
l26 20 12 -58 c36 -185 64 -533 43 -546 -6 -3 -15 -1 -21 6 -6 7 -33 41 -60
74 -63 78 -101 105 -157 112 -39 4 -47 1 -78 -30 -25 -25 -37 -48 -46 -93 -16
-79 -8 -175 19 -221 19 -32 20 -38 7 -53 -23 -26 -66 -124 -66 -152 0 -14 11
-36 25 -49 35 -33 106 -25 183 23 31 19 58 34 60 32 2 -2 -7 -20 -20 -42 -50
-81 -120 -256 -196 -488 -16 -49 -42 -121 -59 -160 -54 -127 -67 -190 -68
-320 0 -119 0 -121 38 -195 20 -41 37 -89 37 -106 0 -63 42 -333 65 -419 91
-338 254 -636 464 -846 169 -168 357 -285 636 -393 218 -85 248 -99 337 -158
148 -97 225 -183 285 -316 14 -31 44 -81 65 -110 33 -44 54 -61 121 -93 44
-21 89 -39 98 -39 22 0 26 -18 40 -185 12 -150 8 -244 -17 -340 -20 -77 -43
-116 -113 -188 -67 -70 -158 -119 -319 -171 -137 -44 -164 -60 -160 -94 4 -37
48 -47 118 -28 114 31 413 96 418 91 3 -3 0 -43 -7 -88 -23 -143 -25 -201 -8
-216 29 -24 55 6 120 142 36 72 76 142 89 154 l24 23 109 -29 c61 -16 134 -32
163 -36 29 -4 51 -10 48 -13 -3 -3 1 -14 11 -24 24 -27 97 -23 195 11 120 43
273 79 348 83 l65 3 -3 -65 c-2 -50 -11 -81 -37 -135 -40 -80 -44 -111 -15
-120 25 -8 50 6 89 50 43 49 65 96 91 193 21 78 24 82 50 82 15 0 71 -13 125
-30 109 -33 192 -39 202 -15 8 22 -23 53 -60 61 -50 11 -149 62 -184 94 -62
59 -123 222 -122 330 1 196 48 439 91 473 78 60 108 90 172 177 41 54 107 165
151 250 115 224 147 251 432 359 389 147 625 327 821 625 134 203 259 549 329
908 11 56 17 152 19 295 l3 212 35 73 c19 40 40 101 47 136 23 121 -7 306 -68
409 -26 45 -90 108 -127 125 -19 8 -25 21 -30 59 -8 60 -35 125 -78 187 -43
62 -98 122 -112 122 -6 0 -20 -16 -31 -36 -52 -97 -239 -187 -500 -239 -284
-57 -832 -95 -1380 -95 -366 0 -597 24 -925 96 -165 36 -154 31 -136 60 21 31
20 59 -4 128 -35 103 -82 179 -155 252 -80 79 -176 134 -235 134 -69 0 -104
23 -133 87 -108 243 -144 393 -191 799 l-5 41 62 17 c275 76 403 276 257 400
-44 36 -183 109 -262 137 -65 23 -69 26 -83 69 -8 25 -19 77 -25 115 -20 122
-41 185 -75 220 -39 42 -77 52 -129 35 -66 -21 -118 -14 -203 25 -139 65 -204
57 -286 -35 -47 -52 -138 -195 -198 -309 l-34 -64 -128 -43 c-300 -100 -398
-181 -365 -302 15 -55 98 -130 196 -177 73 -36 82 -43 82 -67 0 -17 -5 -28
-14 -28 -33 0 -175 -83 -224 -132 -64 -62 -84 -98 -80 -141 4 -39 30 -46 91
-22 28 11 65 15 111 13 l68 -3 -131 -147 c-72 -81 -138 -159 -147 -173 -21
-33 -34 -32 -71 8 -88 92 -89 159 -5 488 34 129 66 273 71 319 23 180 7 394
-40 545 -46 150 -149 315 -261 421 -110 104 -287 204 -360 204 l-43 -1 80 -42z
m1344 -774 c52 -22 175 -42 258 -43 120 0 221 19 333 63 58 23 109 42 113 42
4 0 16 -19 27 -42 18 -42 18 -42 -1 -68 -33 -41 -105 -85 -192 -117 -151 -56
-400 -49 -542 16 -62 28 -119 76 -135 115 -10 25 -8 35 10 70 l21 42 36 -32
c20 -17 53 -38 72 -46z m-132 -589 c77 -16 113 -39 113 -70 0 -7 -28 -56 -63
-107 -37 -55 -71 -119 -81 -153 -37 -123 -62 -164 -101 -164 -30 0 -45 42 -45
125 0 58 3 65 52 136 29 41 59 79 67 85 12 10 2 13 -51 19 -104 11 -231 -18
-345 -81 -82 -44 -85 -23 -8 51 72 71 126 101 248 141 121 39 116 38 214 18z
m877 -16 c8 -43 27 -163 41 -260 31 -203 93 -416 164 -555 17 -34 27 -64 23
-66 -4 -3 -81 -28 -172 -57 -91 -28 -227 -71 -303 -96 l-138 -45 -28 30 c-16
17 -43 32 -63 36 -64 12 -238 -36 -308 -85 l-25 -18 -1 147 c-2 149 -30 384
-60 489 -14 51 -14 57 7 120 28 87 39 108 89 171 l41 52 38 -34 c57 -52 116
-71 204 -65 122 8 216 73 257 178 l17 44 84 17 c118 23 128 23 133 -3z m-1018
-180 c-57 -71 -243 -317 -287 -380 l-46 -67 -23 24 c-13 14 -29 25 -37 25 -7
0 -13 3 -13 6 0 3 54 64 121 137 66 73 146 164 177 204 58 72 68 80 111 82
l24 1 -27 -32z m-117 -4 c-10 -10 -29 -14 -50 -12 l-34 4 45 11 c25 6 47 11
50 12 2 1 -3 -6 -11 -15z m1451 -744 c0 -6 -8 -13 -17 -17 -10 -3 -97 -36
-193 -73 -97 -38 -202 -76 -234 -85 -67 -20 -62 -11 -127 -209 -23 -69 -45
-126 -48 -126 -3 0 -20 22 -38 48 -18 26 -48 62 -66 80 l-34 33 23 57 c13 31
24 65 24 74 0 11 11 20 28 24 50 12 446 132 532 162 121 43 150 49 150 32z
m-170 -244 c0 -2 -53 -46 -117 -98 -65 -52 -163 -135 -218 -184 -210 -187
-237 -209 -685 -563 -171 -135 -267 -238 -324 -345 l-26 -49 0 42 c0 69 28
232 64 373 49 189 188 554 208 542 4 -3 17 0 28 6 19 10 28 5 71 -35 90 -84
238 -134 311 -106 47 18 68 65 68 152 0 74 1 77 26 83 15 4 27 6 28 4 53 -74
129 -168 136 -168 9 0 25 39 63 154 l23 68 94 33 c52 18 129 46 170 63 82 34
80 34 80 28z m1697 -651 c67 -20 103 -49 103 -84 0 -34 -74 -253 -175 -516
-157 -413 -202 -607 -225 -985 -12 -193 -26 -310 -40 -324 -9 -9 -84 15 -113
37 -11 7 -20 38 -27 82 -15 109 -12 570 5 716 47 401 195 820 373 1057 28 37
31 37 99 17z m428 -149 c170 -43 412 -137 400 -156 -3 -6 -23 -10 -43 -10 -41
0 -71 -14 -58 -27 4 -4 98 -11 209 -14 182 -5 207 -7 254 -28 62 -27 77 -58
58 -114 -32 -93 -232 -283 -426 -402 -38 -23 -66 -44 -63 -47 8 -9 75 18 144
58 108 62 133 74 157 74 47 0 23 -90 -66 -245 -62 -106 -217 -264 -331 -337
-76 -48 -115 -68 -214 -107 -26 -11 -28 -14 -14 -27 12 -12 23 -13 64 -4 27 6
68 20 92 30 47 21 47 18 -6 -50 -56 -72 -134 -150 -177 -178 -113 -73 -275
-130 -418 -147 -63 -8 -215 2 -236 15 -14 8 -11 57 25 444 24 261 61 407 207
806 104 288 157 450 157 483 0 19 5 20 93 14 50 -4 137 -18 192 -31z m-881
-18 c17 -28 -4 -53 -45 -53 -28 0 -35 4 -37 23 -2 13 2 30 9 38 16 19 59 14
73 -8z m-319 -10 c42 -19 27 -68 -22 -68 -32 0 -46 31 -27 58 18 26 16 25 49
10z m432 -2674 c62 -51 109 -122 157 -238 24 -57 53 -118 66 -135 26 -38 107
-81 150 -81 24 0 33 -6 41 -27 16 -40 4 -432 -15 -501 -45 -162 -175 -272
-417 -351 -52 -17 -100 -35 -108 -40 -9 -6 -20 -2 -32 10 -10 10 -31 22 -46
25 -16 4 -52 18 -80 32 -120 56 -194 159 -214 298 -22 155 10 432 62 535 10
20 29 43 42 52 13 8 45 37 70 64 40 41 52 64 82 155 40 118 74 173 136 218 45
32 45 32 106 -16z m-505 -531 c-30 -86 -46 -247 -39 -406 5 -126 8 -142 35
-202 55 -117 114 -165 272 -223 80 -30 28 -27 -76 4 -49 15 -107 31 -129 37
-22 6 -43 14 -46 20 -10 15 -65 -20 -87 -55 -11 -18 -46 -85 -77 -148 -32 -63
-60 -117 -61 -119 -13 -15 -10 15 6 89 21 90 27 245 10 255 -5 3 -15 -5 -21
-18 -9 -19 -21 -26 -58 -30 -25 -3 -133 -29 -239 -57 -175 -47 -233 -56 -192
-29 8 5 64 25 123 44 163 53 259 105 330 178 69 72 99 133 123 249 19 90 25
323 11 415 l-8 52 68 3 c37 2 70 2 72 1 1 -1 -6 -28 -17 -60z m1078 50 c0 -5
-9 -50 -20 -102 -43 -209 -35 -442 20 -558 57 -123 107 -169 219 -203 86 -26
112 -44 52 -36 -52 8 -233 67 -242 79 -12 17 -48 -18 -68 -63 -10 -25 -24 -69
-31 -97 -11 -49 -74 -162 -99 -177 -6 -4 5 26 24 66 51 107 59 223 20 274 -15
19 -15 19 -29 0 -11 -14 -35 -21 -93 -27 -43 -4 -163 -31 -268 -58 -104 -28
-194 -49 -200 -48 -16 6 65 43 145 67 41 13 119 45 172 72 228 116 291 260
291 666 l0 152 53 0 c30 0 54 -3 54 -7z"/>
<path d="M2080 4897 c-33 -17 -39 -61 -10 -77 48 -26 108 45 64 77 -22 16 -23
16 -54 0z m43 -31 c3 -12 -30 -32 -39 -24 -11 12 5 40 21 36 9 -2 17 -7 18
-12z"/>
<path d="M1916 4437 c-12 -9 -17 -23 -14 -47 3 -31 7 -35 35 -38 25 -3 35 2
49 23 34 51 -20 99 -70 62z m54 -31 c0 -17 -24 -38 -33 -29 -15 15 -6 43 13
43 11 0 20 -6 20 -14z"/>
</g>
</svg>
